<?xml version="1.0" standalone="no"?>
<!DOCTYPE svg PUBLIC "-//W3C//DTD SVG 20010904//EN"
 "http://www.w3.org/TR/2001/REC-SVG-20010904/DTD/svg10.dtd">
<svg version="1.0" xmlns="http://www.w3.org/2000/svg"
 width="260.000000pt" height="260.000000pt" viewBox="0 0 260.000000 260.000000"
 preserveAspectRatio="xMidYMid meet">
<metadata>
Created by potrace 1.11, written by Peter Selinger 2001-2013
</metadata>
<g transform="translate(0.000000,260.000000) scale(0.100000,-0.100000)"
fill="#000000" stroke="none">
<path d="M0 1300 l0 -1300 1300 0 1300 0 0 1300 0 1300 -1300 0 -1300 0 0
-1300z m1102 658 l3 -453 238 -3 238 -2 -4 -563 c-3 -599 -4 -608 -54 -667
-35 -42 -68 -57 -141 -66 l-62 -7 0 41 c0 40 0 40 47 47 70 10 90 21 110 57
17 30 18 75 21 556 l3 522 -241 0 -240 0 0 495 0 495 40 0 40 0 2 -452z"/>
</g>
</svg>
