<svg width="26.418" height="25.349" xmlns="http://www.w3.org/2000/svg"><defs><clipPath id="a"><path d="M0 20.279h21.135V0H0v20.279z"/></clipPath></defs><title>background</title><path fill="none" d="M-1-1h582v402H-1z"/><title>Layer 1</title><g clip-path="url(#a)" transform="matrix(1.25 0 0 -1.25 0 25.35)" fill="#dd7a39"><path d="M16.772 1H4.362l-1.667 9.295H18.44L16.772 1zm3.862 10.295H.5a.499.499 0 1 1 0-1h1.178L3.452.412A.5.5 0 0 1 3.944 0H17.19a.5.5 0 0 1 .492.412l1.774 9.883h1.178a.5.5 0 0 1 0 1m.001 1.816h-4.073l-2.586 6.844a.5.5 0 0 1-.936-.354l2.452-6.49H5.786l2.453 6.49a.5.5 0 0 1-.936.354l-2.586-6.844H.5a.5.5 0 1 1 0-1h20.135a.5.5 0 0 1 0 1"/><path d="M7.157 1.518a.5.5 0 0 1 .499.543l-.62 7.261a.496.496 0 0 1-.54.456.5.5 0 0 1-.457-.542l.621-7.262a.5.5 0 0 1 .497-.457m3.406.001h.004a.5.5 0 0 1 .5.494l.073 7.261a.501.501 0 0 1-.496.506c-.318.02-.501-.219-.504-.496l-.073-7.262a.5.5 0 0 1 .496-.504m3.362.003c.018-.002.035-.002.053-.002a.5.5 0 0 1 .496.447l.763 7.261a.5.5 0 0 1-.994.105l-.763-7.26a.5.5 0 0 1 .445-.552"/></g></svg>