<svg width="26.418375" height="25.349375" xmlns="http://www.w3.org/2000/svg">
 <metadata id="metadata8">image/svg+xml</metadata>
 <defs>
  <clipPath clipPathUnits="userSpaceOnUse" id="clipPath16">
   <path d="m0,20.279l21.135,0l0,-20.279l-21.135,0l0,20.279z" id="path18"/>
  </clipPath>
 </defs>
 <g>
  <title>background</title>
  <rect fill="none" id="canvas_background" height="402" width="582" y="-1" x="-1"/>
 </g>
 <g>
  <title>Layer 1</title>
  <g id="g10" transform="matrix(1.25,0,0,-1.25,0,25.349375) ">
   <g fill="#ae8d2f" id="g12">
    <g fill="#ae8d2f" id="g14" clip-path="url(#clipPath16)">
     <g fill="#ae8d2f" id="g20">
      <path fill="#dd7a39" fill-rule="nonzero" d="m16.7724,1l-12.41,0l-1.667,9.295l15.744,0l-1.667,-9.295zm3.862,10.295l-1.597,0l-16.94,0l-1.597,0c-0.277,0 -0.5,-0.223 -0.5,-0.5c0,-0.275 0.223,-0.5 0.5,-0.5l1.178,0l1.774,-9.883c0.043,-0.238 0.25,-0.412 0.492,-0.412l13.246,0c0.242,0 0.449,0.174 0.492,0.412l1.774,9.883l1.178,0c0.277,0 0.5,0.225 0.5,0.5c0,0.277 -0.223,0.5 -0.5,0.5" id="path22"/>
     </g>
     <g fill="#ae8d2f" id="g24">
      <path fill="#dd7a39" fill-rule="nonzero" d="m20.634701,13.1113l-4.073,0l-2.586,6.844c-0.098,0.26 -0.387,0.39 -0.645,0.291c-0.258,-0.098 -0.388,-0.385 -0.291,-0.645l2.452,-6.49l-9.706,0l2.453,6.49c0.097,0.26 -0.033,0.547 -0.292,0.645c-0.258,0.097 -0.546,-0.031 -0.644,-0.291l-2.586,-6.844l-4.217,0c-0.276,0 -0.5,-0.223 -0.5,-0.5c0,-0.275 0.224,-0.5 0.5,-0.5l4.563,0l11.153,0l4.419,0c0.276,0 0.5,0.225 0.5,0.5c0,0.277 -0.224,0.5 -0.5,0.5" id="path26"/>
     </g>
     <g fill="#ae8d2f" id="g28">
      <path fill="#dd7a39" fill-rule="nonzero" d="m7.1572,1.5175c0.015,0 0.029,0 0.043,0.002c0.275,0.023 0.479,0.266 0.456,0.541l-0.621,7.262c-0.023,0.273 -0.269,0.488 -0.54,0.455c-0.275,-0.024 -0.48,-0.266 -0.456,-0.541l0.621,-7.262c0.022,-0.26 0.241,-0.457 0.497,-0.457" id="path30"/>
     </g>
     <g fill="#ae8d2f" id="g32">
      <path fill="#dd7a39" fill-rule="nonzero" d="m10.5625,1.5175l0.005,0c0.273,0 0.497,0.221 0.5,0.494l0.072,7.262c0.003,0.277 -0.219,0.502 -0.495,0.506c-0.319,0.019 -0.502,-0.219 -0.505,-0.496l-0.072,-7.262c-0.003,-0.275 0.219,-0.502 0.495,-0.504" id="path34"/>
     </g>
     <g fill="#ae8d2f" id="g36">
      <path fill="#dd7a39" fill-rule="nonzero" d="m13.9248,1.5195c0.018,-0.002 0.035,-0.002 0.053,-0.002c0.252,0 0.468,0.191 0.496,0.447l0.763,7.262c0.03,0.275 -0.169,0.522 -0.445,0.549c-0.272,0.031 -0.519,-0.17 -0.549,-0.444l-0.763,-7.261c-0.03,-0.276 0.17,-0.522 0.445,-0.551" id="path38"/>
     </g>
    </g>
   </g>
  </g>
 </g>
</svg>